<svg xmlns="http://www.w3.org/2000/svg" viewBox="0 0 64 64" width="64" height="64">
  <defs>
    <style>
      .icon-primary { fill: #e94560; }
      .icon-secondary { fill: #0f3460; }
      .icon-accent { fill: #f1f1f1; }
    </style>
  </defs>
  
  <!-- Shield base -->
  <path class="icon-secondary" d="M32 4 L8 14 L8 28 Q8 44 32 60 Q56 44 56 28 L56 14 Z"/>
  
  <!-- Shield outline -->
  <path class="icon-primary" d="M32 6 L10 15 L10 28 Q10 43 32 57 Q54 43 54 28 L54 15 Z" fill="none" stroke="#e94560" stroke-width="2"/>
  
  <!-- Protection symbol - umbrella -->
  <g class="icon-accent">
    <path d="M32 22 Q22 22 18 28 L18 30 L22 30 L22 28 Q24 25 28 24 L28 42 Q28 44 30 44 Q32 44 32 42 L32 30" fill="#f1f1f1"/>
    <path d="M32 22 Q42 22 46 28 L46 30 L42 30 L42 28 Q40 25 36 24 L36 30 L32 30" fill="#f1f1f1"/>
    <circle cx="30" cy="45" r="1.5" fill="#f1f1f1"/>
  </g>
  
  <!-- Medical cross accent -->
  <g class="icon-primary">
    <rect x="30" y="34" width="4" height="10" rx="1"/>
    <rect x="27" y="37" width="10" height="4" rx="1"/>
  </g>
</svg>