<svg xmlns="http://www.w3.org/2000/svg" style="display: none;">
  <defs>
    <!-- Color Palette (WCAG AA compliant) -->
    <style>
      .icon-primary { fill: #1a1a2e; }
      .icon-secondary { fill: #16213e; }
      .icon-accent { fill: #0f3460; }
      .icon-highlight { fill: #e94560; }
      .icon-success { fill: #2ecc71; }
      .icon-warning { fill: #f39c12; }
      .icon-info { fill: #3498db; }
      .icon-danger { fill: #e74c3c; }
      .icon-light { fill: #f1f1f1; }
      .icon-dark { fill: #2c3e50; }
    </style>

    <!-- 1. Home Icon -->
    <symbol id="icon-home" viewBox="0 0 24 24">
      <path class="icon-highlight" d="M10 20v-6h4v6h5v-8h3L12 3 2 12h3v8z"/>
    </symbol>

    <!-- 2. Dashboard Icon -->
    <symbol id="icon-dashboard" viewBox="0 0 24 24">
      <path class="icon-highlight" d="M3 13h8V3H3v10zm0 8h8v-6H3v6zm10 0h8V11h-8v10zm0-18v6h8V3h-8z"/>
    </symbol>

    <!-- 3. Chart/Analytics Icon -->
    <symbol id="icon-chart" viewBox="0 0 24 24">
      <path class="icon-info" d="M3.5 18.49l6-6.01 4 4L22 6.92l-1.41-1.41-7.09 7.97-4-4L2 16.99z"/>
    </symbol>

    <!-- 4. User Icon -->
    <symbol id="icon-user" viewBox="0 0 24 24">
      <path class="icon-accent" d="M12 12c2.21 0 4-1.79 4-4s-1.79-4-4-4-4 1.79-4 4 1.79 4 4 4zm0 2c-2.67 0-8 1.34-8 4v2h16v-2c0-2.66-5.33-4-8-4z"/>
    </symbol>

    <!-- 5. Settings Icon -->
    <symbol id="icon-settings" viewBox="0 0 24 24">
      <path class="icon-dark" d="M19.14 12.94c.04-.3.06-.61.06-.94 0-.32-.02-.64-.07-.94l2.03-1.58c.18-.14.23-.41.12-.61l-1.92-3.32c-.12-.22-.37-.29-.59-.22l-2.39.96c-.5-.38-1.03-.7-1.62-.94l-.36-2.54c-.04-.24-.24-.41-.48-.41h-3.84c-.24 0-.43.17-.47.41l-.36 2.54c-.59.24-1.13.57-1.62.94l-2.39-.96c-.22-.08-.47 0-.59.22L2.74 8.87c-.12.21-.08.47.12.61l2.03 1.58c-.05.3-.09.63-.09.94s.02.64.07.94l-2.03 1.58c-.18.14-.23.41-.12.61l1.92 3.32c.12.22.37.29.59.22l2.39-.96c.5.38 1.03.7 1.62.94l.36 2.54c.05.24.24.41.48.41h3.84c.24 0 .44-.17.47-.41l.36-2.54c.59-.24 1.13-.56 1.62-.94l2.39.96c.22.08.47 0 .59-.22l1.92-3.32c.12-.22.07-.47-.12-.61l-2.01-1.58zM12 15.6c-1.98 0-3.6-1.62-3.6-3.6s1.62-3.6 3.6-3.6 3.6 1.62 3.6 3.6-1.62 3.6-3.6 3.6z"/>
    </symbol>

    <!-- 6. Download Icon -->
    <symbol id="icon-download" viewBox="0 0 24 24">
      <path class="icon-success" d="M19 9h-4V3H9v6H5l7 7 7-7zM5 18v2h14v-2H5z"/>
    </symbol>

    <!-- 7. Upload Icon -->
    <symbol id="icon-upload" viewBox="0 0 24 24">
      <path class="icon-info" d="M9 16h6v-6h4l-7-7-7 7h4zm-4 2h14v2H5z"/>
    </symbol>

    <!-- 8. Delete/Trash Icon -->
    <symbol id="icon-delete" viewBox="0 0 24 24">
      <path class="icon-danger" d="M6 19c0 1.1.9 2 2 2h8c1.1 0 2-.9 2-2V7H6v12zM19 4h-3.5l-1-1h-5l-1 1H5v2h14V4z"/>
    </symbol>

    <!-- 9. Edit Icon -->
    <symbol id="icon-edit" viewBox="0 0 24 24">
      <path class="icon-warning" d="M3 17.25V21h3.75L17.81 9.94l-3.75-3.75L3 17.25zM20.71 7.04c.39-.39.39-1.02 0-1.41l-2.34-2.34c-.39-.39-1.02-.39-1.41 0l-1.83 1.83 3.75 3.75 1.83-1.83z"/>
    </symbol>

    <!-- 10. Search Icon -->
    <symbol id="icon-search" viewBox="0 0 24 24">
      <path class="icon-accent" d="M15.5 14h-.79l-.28-.27C15.41 12.59 16 11.11 16 9.5 16 5.91 13.09 3 9.5 3S3 5.91 3 9.5 5.91 16 9.5 16c1.61 0 3.09-.59 4.23-1.57l.27.28v.79l5 4.99L20.49 19l-4.99-5zm-6 0C7.01 14 5 11.99 5 9.5S7.01 5 9.5 5 14 7.01 14 9.5 11.99 14 9.5 14z"/>
    </symbol>

    <!-- 11. Filter Icon -->
    <symbol id="icon-filter" viewBox="0 0 24 24">
      <path class="icon-dark" d="M10 18h4v-2h-4v2zM3 6v2h18V6H3zm3 7h12v-2H6v2z"/>
    </symbol>

    <!-- 12. Calendar Icon -->
    <symbol id="icon-calendar" viewBox="0 0 24 24">
      <path class="icon-info" d="M19 3h-1V1h-2v2H8V1H6v2H5c-1.11 0-1.99.9-1.99 2L3 19c0 1.1.89 2 2 2h14c1.1 0 2-.9 2-2V5c0-1.1-.9-2-2-2zm0 16H5V8h14v11zM7 10h5v5H7z"/>
    </symbol>

    <!-- 13. Clock/Time Icon -->
    <symbol id="icon-clock" viewBox="0 0 24 24">
      <path class="icon-warning" d="M11.99 2C6.47 2 2 6.48 2 12s4.47 10 9.99 10C17.52 22 22 17.52 22 12S17.52 2 11.99 2zM12 20c-4.42 0-8-3.58-8-8s3.58-8 8-8 8 3.58 8 8-3.58 8-8 8zm.5-13H11v6l5.25 3.15.75-1.23-4.5-2.67z"/>
    </symbol>

    <!-- 14. Notification/Bell Icon -->
    <symbol id="icon-notification" viewBox="0 0 24 24">
      <path class="icon-highlight" d="M12 22c1.1 0 2-.9 2-2h-4c0 1.1.89 2 2 2zm6-6v-5c0-3.07-1.64-5.64-4.5-6.32V4c0-.83-.67-1.5-1.5-1.5s-1.5.67-1.5 1.5v.68C7.63 5.36 6 7.92 6 11v5l-2 2v1h16v-1l-2-2z"/>
    </symbol>

    <!-- 15. Email/Mail Icon -->
    <symbol id="icon-email" viewBox="0 0 24 24">
      <path class="icon-accent" d="M20 4H4c-1.1 0-1.99.9-1.99 2L2 18c0 1.1.9 2 2 2h16c1.1 0 2-.9 2-2V6c0-1.1-.9-2-2-2zm0 4l-8 5-8-5V6l8 5 8-5v2z"/>
    </symbol>

    <!-- 16. Lock/Security Icon -->
    <symbol id="icon-lock" viewBox="0 0 24 24">
      <path class="icon-danger" d="M18 8h-1V6c0-2.76-2.24-5-5-5S7 3.24 7 6v2H6c-1.1 0-2 .9-2 2v10c0 1.1.9 2 2 2h12c1.1 0 2-.9 2-2V10c0-1.1-.9-2-2-2zm-6 9c-1.1 0-2-.9-2-2s.9-2 2-2 2 .9 2 2-.9 2-2 2zm3.1-9H8.9V6c0-1.71 1.39-3.1 3.1-3.1 1.71 0 3.1 1.39 3.1 3.1v2z"/>
    </symbol>

    <!-- 17. Check/Success Icon -->
    <symbol id="icon-check" viewBox="0 0 24 24">
      <path class="icon-success" d="M9 16.17L4.83 12l-1.42 1.41L9 19 21 7l-1.41-1.41z"/>
    </symbol>

    <!-- 18. Close/Cancel Icon -->
    <symbol id="icon-close" viewBox="0 0 24 24">
      <path class="icon-danger" d="M19 6.41L17.59 5 12 10.59 6.41 5 5 6.41 10.59 12 5 17.59 6.41 19 12 13.41 17.59 19 19 17.59 13.41 12z"/>
    </symbol>

    <!-- 19. Info Icon -->
    <symbol id="icon-info" viewBox="0 0 24 24">
      <path class="icon-info" d="M12 2C6.48 2 2 6.48 2 12s4.48 10 10 10 10-4.48 10-10S17.52 2 12 2zm1 15h-2v-6h2v6zm0-8h-2V7h2v2z"/>
    </symbol>

    <!-- 20. Warning Icon -->
    <symbol id="icon-warning" viewBox="0 0 24 24">
      <path class="icon-warning" d="M1 21h22L12 2 1 21zm12-3h-2v-2h2v2zm0-4h-2v-4h2v4z"/>
    </symbol>

    <!-- 21. Menu/Hamburger Icon -->
    <symbol id="icon-menu" viewBox="0 0 24 24">
      <path class="icon-dark" d="M3 18h18v-2H3v2zm0-5h18v-2H3v2zm0-7v2h18V6H3z"/>
    </symbol>

    <!-- 22. More Options Icon -->
    <symbol id="icon-more" viewBox="0 0 24 24">
      <path class="icon-dark" d="M12 8c1.1 0 2-.9 2-2s-.9-2-2-2-2 .9-2 2 .9 2 2 2zm0 2c-1.1 0-2 .9-2 2s.9 2 2 2 2-.9 2-2-.9-2-2-2zm0 6c-1.1 0-2 .9-2 2s.9 2 2 2 2-.9 2-2-.9-2-2-2z"/>
    </symbol>

    <!-- 23. Refresh Icon -->
    <symbol id="icon-refresh" viewBox="0 0 24 24">
      <path class="icon-info" d="M17.65 6.35C16.2 4.9 14.21 4 12 4c-4.42 0-7.99 3.58-7.99 8s3.57 8 7.99 8c3.73 0 6.84-2.55 7.73-6h-2.08c-.82 2.33-3.04 4-5.65 4-3.31 0-6-2.69-6-6s2.69-6 6-6c1.66 0 3.14.69 4.22 1.78L13 11h7V4l-2.35 2.35z"/>
    </symbol>

    <!-- 24. Share Icon -->
    <symbol id="icon-share" viewBox="0 0 24 24">
      <path class="icon-accent" d="M18 16.08c-.76 0-1.44.3-1.96.77L8.91 12.7c.05-.23.09-.46.09-.7s-.04-.47-.09-.7l7.05-4.11c.54.5 1.25.81 2.04.81 1.66 0 3-1.34 3-3s-1.34-3-3-3-3 1.34-3 3c0 .24.04.47.09.7L8.04 9.81C7.5 9.31 6.79 9 6 9c-1.66 0-3 1.34-3 3s1.34 3 3 3c.79 0 1.5-.31 2.04-.81l7.12 4.16c-.05.21-.08.43-.08.65 0 1.61 1.31 2.92 2.92 2.92 1.61 0 2.92-1.31 2.92-2.92s-1.31-2.92-2.92-2.92z"/>
    </symbol>

    <!-- 25. Folder Icon -->
    <symbol id="icon-folder" viewBox="0 0 24 24">
      <path class="icon-warning" d="M10 4H4c-1.1 0-1.99.9-1.99 2L2 18c0 1.1.9 2 2 2h16c1.1 0 2-.9 2-2V8c0-1.1-.9-2-2-2h-8l-2-2z"/>
    </symbol>

    <!-- 26. File/Document Icon -->
    <symbol id="icon-file" viewBox="0 0 24 24">
      <path class="icon-accent" d="M6 2c-1.1 0-1.99.9-1.99 2L4 20c0 1.1.89 2 1.99 2H18c1.1 0 2-.9 2-2V8l-6-6H6zm7 7V3.5L18.5 9H13z"/>
    </symbol>

    <!-- 27. Link Icon -->
    <symbol id="icon-link" viewBox="0 0 24 24">
      <path class="icon-info" d="M3.9 12c0-1.71 1.39-3.1 3.1-3.1h4V7H7c-2.76 0-5 2.24-5 5s2.24 5 5 5h4v-1.9H7c-1.71 0-3.1-1.39-3.1-3.1zM8 13h8v-2H8v2zm9-6h-4v1.9h4c1.71 0 3.1 1.39 3.1 3.1s-1.39 3.1-3.1 3.1h-4V17h4c2.76 0 5-2.24 5-5s-2.24-5-5-5z"/>
    </symbol>

    <!-- 28. Star/Favorite Icon -->
    <symbol id="icon-star" viewBox="0 0 24 24">
      <path class="icon-warning" d="M12 17.27L18.18 21l-1.64-7.03L22 9.24l-7.19-.61L12 2 9.19 8.63 2 9.24l5.46 4.73L5.82 21z"/>
    </symbol>

    <!-- 29. Heart/Like Icon -->
    <symbol id="icon-heart" viewBox="0 0 24 24">
      <path class="icon-highlight" d="M12 21.35l-1.45-1.32C5.4 15.36 2 12.28 2 8.5 2 5.42 4.42 3 7.5 3c1.74 0 3.41.81 4.5 2.09C13.09 3.81 14.76 3 16.5 3 19.58 3 22 5.42 22 8.5c0 3.78-3.4 6.86-8.55 11.54L12 21.35z"/>
    </symbol>

    <!-- 30. Visibility/Eye Icon -->
    <symbol id="icon-visibility" viewBox="0 0 24 24">
      <path class="icon-dark" d="M12 4.5C7 4.5 2.73 7.61 1 12c1.73 4.39 6 7.5 11 7.5s9.27-3.11 11-7.5c-1.73-4.39-6-7.5-11-7.5zM12 17c-2.76 0-5-2.24-5-5s2.24-5 5-5 5 2.24 5 5-2.24 5-5 5zm0-8c-1.66 0-3 1.34-3 3s1.34 3 3 3 3-1.34 3-3-1.34-3-3-3z"/>
    </symbol>

  </defs>
</svg>