<svg xmlns="http://www.w3.org/2000/svg" xmlns:xlink="http://www.w3.org/1999/xlink" style="display: none;">
  <defs>
    <!-- Color Palette (WCAG AA compliant) -->
    <style>
      .icon-primary { fill: #2563eb; }
      .icon-success { fill: #16a34a; }
      .icon-warning { fill: #d97706; }
      .icon-danger { fill: #dc2626; }
      .icon-info { fill: #0891b2; }
      .icon-purple { fill: #9333ea; }
      .icon-pink { fill: #db2777; }
      .icon-gray { fill: #4b5563; }
    </style>

    <!-- 1. Shopping Cart -->
    <symbol id="icon-shopping" viewBox="0 0 24 24">
      <path class="icon-primary" d="M7 18c-1.1 0-1.99.9-1.99 2S5.9 22 7 22s2-.9 2-2-.9-2-2-2zM1 2v2h2l3.6 7.59-1.35 2.45c-.16.28-.25.61-.25.96 0 1.1.9 2 2 2h12v-2H7.42c-.14 0-.25-.11-.25-.25l.03-.12.9-1.63h7.45c.75 0 1.41-.41 1.75-1.03l3.58-6.49c.08-.14.12-.31.12-.48 0-.55-.45-1-1-1H5.21l-.94-2H1zm16 16c-1.1 0-1.99.9-1.99 2s.89 2 1.99 2 2-.9 2-2-.9-2-2-2z"/>
    </symbol>

    <!-- 2. Food & Dining -->
    <symbol id="icon-food" viewBox="0 0 24 24">
      <path class="icon-danger" d="M11 9H9V2H7v7H5V2H3v7c0 2.12 1.66 3.84 3.75 3.97V22h2.5v-9.03C11.34 12.84 13 11.12 13 9V2h-2v7zm5-3v8h2.5v8H21V2c-2.76 0-5 2.24-5 4z"/>
    </symbol>

    <!-- 3. Transportation -->
    <symbol id="icon-transport" viewBox="0 0 24 24">
      <path class="icon-info" d="M18.92 6.01C18.72 5.42 18.16 5 17.5 5h-11c-.66 0-1.21.42-1.42 1.01L3 12v8c0 .55.45 1 1 1h1c.55 0 1-.45 1-1v-1h12v1c0 .55.45 1 1 1h1c.55 0 1-.45 1-1v-8l-2.08-5.99zM6.5 16c-.83 0-1.5-.67-1.5-1.5S5.67 13 6.5 13s1.5.67 1.5 1.5S7.33 16 6.5 16zm11 0c-.83 0-1.5-.67-1.5-1.5s.67-1.5 1.5-1.5 1.5.67 1.5 1.5-.67 1.5-1.5 1.5zM5 11l1.5-4.5h11L19 11H5z"/>
    </symbol>

    <!-- 4. Housing & Utilities -->
    <symbol id="icon-home" viewBox="0 0 24 24">
      <path class="icon-success" d="M10 20v-6h4v6h5v-8h3L12 3 2 12h3v8z"/>
    </symbol>

    <!-- 5. Healthcare -->
    <symbol id="icon-health" viewBox="0 0 24 24">
      <path class="icon-danger" d="M19 3H5c-1.1 0-1.99.9-1.99 2L3 19c0 1.1.9 2 2 2h14c1.1 0 2-.9 2-2V5c0-1.1-.9-2-2-2zm-1 11h-4v4h-4v-4H6v-4h4V6h4v4h4v4z"/>
    </symbol>

    <!-- 6. Entertainment -->
    <symbol id="icon-entertainment" viewBox="0 0 24 24">
      <path class="icon-purple" d="M18 3v2h-2V3H8v2H6V3H4v18h2v-2h2v2h8v-2h2v2h2V3h-2zM8 17H6v-2h2v2zm0-4H6v-2h2v2zm0-4H6V7h2v2zm10 8h-2v-2h2v2zm0-4h-2v-2h2v2zm0-4h-2V7h2v2z"/>
    </symbol>

    <!-- 7. Education -->
    <symbol id="icon-education" viewBox="0 0 24 24">
      <path class="icon-primary" d="M5 13.18v4L12 21l7-3.82v-4L12 17l-7-3.82zM12 3L1 9l11 6 9-4.91V17h2V9L12 3z"/>
    </symbol>

    <!-- 8. Clothing -->
    <symbol id="icon-clothing" viewBox="0 0 24 24">
      <path class="icon-pink" d="M16 6l2.29 2.29-4.88 4.88-4-4L2 16.59 3.41 18l6-6 4 4 6.3-6.29L22 12V6h-6zm6 12v2H2v-2h20z"/>
    </symbol>

    <!-- 9. Technology -->
    <symbol id="icon-tech" viewBox="0 0 24 24">
      <path class="icon-info" d="M20 18c1.1 0 1.99-.9 1.99-2L22 6c0-1.1-.9-2-2-2H4c-1.1 0-2 .9-2 2v10c0 1.1.9 2 2 2H0v2h24v-2h-4zM4 6h16v10H4V6z"/>
    </symbol>

    <!-- 10. Travel -->
    <symbol id="icon-travel" viewBox="0 0 24 24">
      <path class="icon-warning" d="M21 16v-2l-8-5V3.5c0-.83-.67-1.5-1.5-1.5S10 2.67 10 3.5V9l-8 5v2l8-2.5V19l-2 1.5V22l3.5-1 3.5 1v-1.5L13 19v-5.5l8 2.5z"/>
    </symbol>

    <!-- 11. Sports & Fitness -->
    <symbol id="icon-sports" viewBox="0 0 24 24">
      <path class="icon-success" d="M13.49 5.48c1.1 0 2-.9 2-2s-.9-2-2-2-2 .9-2 2 .9 2 2 2zm-3.6 13.9l1-4.4 2.1 2v6h2v-7.5l-2.1-2 .6-3c1.3 1.5 3.3 2.5 5.5 2.5v-2c-1.9 0-3.5-1-4.3-2.4l-1-1.6c-.4-.6-1-1-1.7-1-.3 0-.5.1-.8.1l-5.2 2.2v4.7h2v-3.4l1.8-.7-1.6 8.1-4.9-1-.4 2 7 1.4z"/>
    </symbol>

    <!-- 12. Gifts -->
    <symbol id="icon-gift" viewBox="0 0 24 24">
      <path class="icon-pink" d="M20 6h-2.18c.11-.31.18-.65.18-1 0-1.66-1.34-3-3-3-1.05 0-1.96.54-2.5 1.35l-.5.67-.5-.68C10.96 2.54 10.05 2 9 2 7.34 2 6 3.34 6 5c0 .35.07.69.18 1H4c-1.11 0-1.99.89-1.99 2L2 19c0 1.11.89 2 2 2h16c1.11 0 2-.89 2-2V8c0-1.11-.89-2-2-2zm-5-2c.55 0 1 .45 1 1s-.45 1-1 1-1-.45-1-1 .45-1 1-1zM9 4c.55 0 1 .45 1 1s-.45 1-1 1-1-.45-1-1 .45-1 1-1zm11 15H4v-2h16v2zm0-5H4V8h5.08L7 10.83 8.62 12 11 8.76l1-1.36 1 1.36L15.38 12 17 10.83 14.92 8H20v6z"/>
    </symbol>

    <!-- 13. Bills & Utilities -->
    <symbol id="icon-bills" viewBox="0 0 24 24">
      <path class="icon-warning" d="M14 2H6c-1.1 0-1.99.9-1.99 2L4 20c0 1.1.89 2 1.99 2H18c1.1 0 2-.9 2-2V8l-6-6zm2 16H8v-2h8v2zm0-4H8v-2h8v2zm-3-5V3.5L18.5 9H13z"/>
    </symbol>

    <!-- 14. Savings -->
    <symbol id="icon-savings" viewBox="0 0 24 24">
      <path class="icon-success" d="M19.83 7.5l-2.27-2.27c.07-.42.18-.81.32-1.15C17.96 3.9 18 3.71 18 3.5 18 2.67 17.33 2 16.5 2c-.23 0-.42.04-.6.11-.34.14-.73.25-1.15.32L12.5 0 10.27 2.24c-.42-.07-.81-.18-1.15-.32-.18-.07-.37-.11-.6-.11C7.67 2 7 2.67 7 3.5c0 .21.04.4.12.58.14.34.25.73.32 1.15L5.17 7.5 7.4 9.73c-.07.42-.18.81-.32 1.15-.08.18-.12.37-.12.58 0 .83.67 1.5 1.5 1.5.23 0 .42-.04.6-.11.34-.14.73-.25 1.15-.32L12.5 15l2.27-2.27c.42.07.81.18 1.15.32.18.07.37.11.6.11.83 0 1.5-.67 1.5-1.5 0-.21-.04-.4-.12-.58-.14-.34-.25-.73-.32-1.15L19.83 7.5zM12 9c-.83 0-1.5-.67-1.5-1.5S11.17 6 12 6s1.5.67 1.5 1.5S12.83 9 12 9z"/>
      <path class="icon-success" d="M4 17h16v2c0 1.1-.9 2-2 2H6c-1.1 0-2-.9-2-2v-2z"/>
    </symbol>

    <!-- 15. Insurance -->
    <symbol id="icon-insurance" viewBox="0 0 24 24">
      <path class="icon-primary" d="M12 1L3 5v6c0 5.55 3.84 10.74 9 12 5.16-1.26 9-6.45 9-12V5l-9-4zm-2 16l-4-4 1.41-1.41L10 14.17l6.59-6.59L18 9l-8 8z"/>
    </symbol>

    <!-- 16. Subscriptions -->
    <symbol id="icon-subscription" viewBox="0 0 24 24">
      <path class="icon-purple" d="M20 8H4V6h16v2zm-2-6H6v2h12V2zm4 10v8c0 1.1-.9 2-2 2H4c-1.1 0-2-.9-2-2v-8c0-1.1.9-2 2-2h16c1.1 0 2 .9 2 2zm-6 4l-6-3.27v6.53L16 16z"/>
    </symbol>

    <!-- 17. Pets -->
    <symbol id="icon-pets" viewBox="0 0 24 24">
      <path class="icon-warning" d="M4.5 9.5m-2.5 0a2.5 2.5 0 1 0 5 0a2.5 2.5 0 1 0 -5 0M9 5.5m-2.5 0a2.5 2.5 0 1 0 5 0a2.5 2.5 0 1 0 -5 0M15 5.5m-2.5 0a2.5 2.5 0 1 0 5 0a2.5 2.5 0 1 0 -5 0M19.5 9.5m-2.5 0a2.5 2.5 0 1 0 5 0a2.5 2.5 0 1 0 -5 0M17.34 14.86c-.87-1.02-1.6-1.89-2.48-2.91-.46-.54-1.05-1.08-1.75-1.32-.11-.04-.22-.07-.33-.09-.25-.04-.52-.04-.78-.04s-.53 0-.79.05c-.11.02-.22.05-.33.09-.7.24-1.28.78-1.75 1.32-.87 1.02-1.6 1.89-2.48 2.91-1.31 1.31-2.92 2.76-2.62 4.79.29 1.02 1.02 2.03 2.33 2.32.73.15 3.06-.44 5.54-.44h.18c2.48 0 4.81.58 5.54.44 1.31-.29 2.04-1.31 2.33-2.32.31-2.04-1.3-3.49-2.61-4.8z"/>
    </symbol>

    <!-- 18. Personal Care -->
    <symbol id="icon-personal" viewBox="0 0 24 24">
      <path class="icon-pink" d="M12 2C6.48 2 2 6.48 2 12s4.48 10 10 10 10-4.48 10-10S17.52 2 12 2zm0 3c1.66 0 3 1.34 3 3s-1.34 3-3 3-3-1.34-3-3 1.34-3 3-3zm0 14.2c-2.5 0-4.71-1.28-6-3.22.03-1.99 4-3.08 6-3.08 1.99 0 5.97 1.09 6 3.08-1.29 1.94-3.5 3.22-6 3.22z"/>
    </symbol>

    <!-- 19. Business -->
    <symbol id="icon-business" viewBox="0 0 24 24">
      <path class="icon-gray" d="M20 7h-4V5l-2-2h-4L8 5v2H4c-1.1 0-2 .9-2 2v5c0 .75.4 1.38 1 1.73V19c0 1.11.89 2 2 2h14c1.11 0 2-.89 2-2v-3.28c.59-.35 1-.99 1-1.72V9c0-1.1-.9-2-2-2zM10 5h4v2h-4V5zM4 9h16v5h-5v-3H9v3H4V9zm9 6h-2v-2h2v2zm6 4H5v-3h4v1h6v-1h4v3z"/>
    </symbol>

    <!-- 20. Charity & Donations -->
    <symbol id="icon-charity" viewBox="0 0 24 24">
      <path class="icon-danger" d="M12 21.35l-1.45-1.32C5.4 15.36 2 12.28 2 8.5 2 5.42 4.42 3 7.5 3c1.74 0 3.41.81 4.5 2.09C13.09 3.81 14.76 3 16.5 3 19.58 3 22 5.42 22 8.5c0 3.78-3.4 6.86-8.55 11.54L12 21.35z"/>
    </symbol>

    <!-- 21. Investment -->
    <symbol id="icon-investment" viewBox="0 0 24 24">
      <path class="icon-success" d="M16 6l2.29 2.29-4.88 4.88-4-4L2 16.59 3.41 18l6-6 4 4 6.3-6.29L22 12V6z"/>
    </symbol>

    <!-- 22. Taxes -->
    <symbol id="icon-taxes" viewBox="0 0 24 24">
      <path class="icon-gray" d="M11.8 10.9c-2.27-.59-3-1.2-3-2.15 0-1.09 1.01-1.85 2.7-1.85 1.78 0 2.44.85 2.5 2.1h2.21c-.07-1.72-1.12-3.3-3.21-3.81V3h-3v2.16c-1.94.42-3.5 1.68-3.5 3.61 0 2.31 1.91 3.46 4.7 4.13 2.5.6 3 1.48 3 2.41 0 .69-.49 1.79-2.7 1.79-2.06 0-2.87-.92-2.98-2.1h-2.2c.12 2.19 1.76 3.42 3.68 3.83V21h3v-2.15c1.95-.37 3.5-1.5 3.5-3.55 0-2.84-2.43-3.81-4.7-4.4z"/>
    </symbol>

    <!-- 23. Loans -->
    <symbol id="icon-loan" viewBox="0 0 24 24">
      <path class="icon-warning" d="M11.8 10.9c-2.27-.59-3-1.2-3-2.15 0-1.09 1.01-1.85 2.7-1.85 1.78 0 2.44.85 2.5 2.1h2.21c-.07-1.72-1.12-3.3-3.21-3.81V3h-3v2.16c-1.94.42-3.5 1.68-3.5 3.61 0 2.31 1.91 3.46 4.7 4.13 2.5.6 3 1.48 3 2.41 0 .69-.49 1.79-2.7 1.79-2.06 0-2.87-.92-2.98-2.1h-2.2c.12 2.19 1.76 3.42 3.68 3.83V21h3v-2.15c1.95-.37 3.5-1.5 3.5-3.55 0-2.84-2.43-3.81-4.7-4.4z"/>
      <path class="icon-warning" d="M12 2C6.48 2 2 6.48 2 12s4.48 10 10 10 10-4.48 10-10S17.52 2 12 2zm0 18c-4.41 0-8-3.59-8-8s3.59-8 8-8 8 3.59 8 8-3.59 8-8 8z" opacity="0.3"/>
    </symbol>

    <!-- 24. Miscellaneous -->
    <symbol id="icon-misc" viewBox="0 0 24 24">
      <path class="icon-gray" d="M12 2C6.48 2 2 6.48 2 12s4.48 10 10 10 10-4.48 10-10S17.52 2 12 2zm1 15h-2v-6h2v6zm0-8h-2V7h2v2z"/>
    </symbol>

    <!-- 25. Income -->
    <symbol id="icon-income" viewBox="0 0 24 24">
      <path class="icon-success" d="M7 7h10v2H7zm0 4h10v2H7z"/>
      <path class="icon-success" d="M19 3h-4.18C14.4 1.84 13.3 1 12 1c-1.3 0-2.4.84-2.82 2H5c-1.1 0-2 .9-2 2v14c0 1.1.9 2 2 2h14c1.1 0 2-.9 2-2V5c0-1.1-.9-2-2-2zm-7 0c.55 0 1 .45 1 1s-.45 1-1 1-1-.45-1-1 .45-1 1-1zm2 14H7v-2h7v2zm3-4H7v-2h10v2zm0-4H7V7h10v2z"/>
    </symbol>

    <!-- 26. Expense -->
    <symbol id="icon-expense" viewBox="0 0 24 24">
      <path class="icon-danger" d="M19 3h-4.18C14.4 1.84 13.3 1 12 1c-1.3 0-2.4.84-2.82 2H5c-1.1 0-2 .9-2 2v14c0 1.1.9 2 2 2h14c1.1 0 2-.9 2-2V5c0-1.1-.9-2-2-2zm-7 0c.55 0 1 .45 1 1s-.45 1-1 1-1-.45-1-1 .45-1 1-1zm0 4c1.66 0 3 1.34 3 3s-1.34 3-3 3-3-1.34-3-3 1.34-3 3-3zm6 12H6v-1.4c0-2 4-3.1 6-3.1s6 1.1 6 3.1V19z"/>
    </symbol>

  </defs>
</svg>